<svg width="137" height="58" viewBox="0 0 137 58" fill="none" xmlns="http://www.w3.org/2000/svg">
<path d="M77.528 39.536C77.336 39.696 76.976 39.912 76.448 40.184C75.936 40.456 75.304 40.696 74.552 40.904C73.8 41.112 72.968 41.208 72.056 41.192C70.664 41.16 69.416 40.912 68.312 40.448C67.224 39.968 66.296 39.32 65.528 38.504C64.776 37.688 64.2 36.752 63.8 35.696C63.4 34.64 63.2 33.512 63.2 32.312C63.2 30.52 63.56 28.936 64.28 27.56C65 26.184 66 25.104 67.28 24.32C68.576 23.536 70.08 23.144 71.792 23.144C72.976 23.144 74.024 23.304 74.936 23.624C75.848 23.944 76.592 24.288 77.168 24.656L75.8 27.944C75.4 27.64 74.864 27.328 74.192 27.008C73.536 26.672 72.776 26.504 71.912 26.504C71.016 26.504 70.176 26.752 69.392 27.248C68.624 27.744 68 28.416 67.52 29.264C67.056 30.096 66.824 31.048 66.824 32.12C66.824 33.256 67.04 34.256 67.472 35.12C67.904 35.968 68.52 36.632 69.32 37.112C70.12 37.592 71.056 37.832 72.128 37.832C73.072 37.832 73.88 37.68 74.552 37.376C75.224 37.072 75.736 36.752 76.088 36.416L77.528 39.536ZM79.6464 35.624C79.6464 34.552 79.8944 33.592 80.3904 32.744C80.9024 31.896 81.6144 31.232 82.5264 30.752C83.4384 30.256 84.4864 30.008 85.6704 30.008C86.8704 30.008 87.9104 30.256 88.7904 30.752C89.6704 31.232 90.3424 31.896 90.8064 32.744C91.2864 33.592 91.5264 34.552 91.5264 35.624C91.5264 36.696 91.2864 37.664 90.8064 38.528C90.3424 39.376 89.6704 40.048 88.7904 40.544C87.9104 41.04 86.8544 41.288 85.6224 41.288C84.4704 41.288 83.4384 41.064 82.5264 40.616C81.6304 40.168 80.9264 39.52 80.4144 38.672C79.9024 37.824 79.6464 36.808 79.6464 35.624ZM83.0304 35.648C83.0304 36.48 83.2704 37.176 83.7504 37.736C84.2304 38.28 84.8384 38.552 85.5744 38.552C86.3584 38.552 86.9824 38.28 87.4464 37.736C87.9104 37.176 88.1424 36.48 88.1424 35.648C88.1424 34.816 87.9104 34.128 87.4464 33.584C86.9824 33.024 86.3584 32.744 85.5744 32.744C84.8384 32.744 84.2304 33.024 83.7504 33.584C83.2704 34.128 83.0304 34.816 83.0304 35.648ZM95.1813 41V33.44H93.4053V30.464H95.1813V26.816C95.1813 25.44 95.5733 24.32 96.3573 23.456C97.1573 22.576 98.3093 22.136 99.8133 22.136C100.261 22.136 100.757 22.208 101.301 22.352C101.861 22.48 102.349 22.696 102.765 23L101.349 25.424C101.189 25.216 100.997 25.08 100.773 25.016C100.565 24.936 100.365 24.896 100.173 24.896C99.6933 24.896 99.3013 25.056 98.9973 25.376C98.6933 25.696 98.5413 26.208 98.5413 26.912V30.464H101.709V33.44H98.5413V41H95.1813ZM102.933 41V33.44H101.157V30.464H102.933V26.816C102.933 25.44 103.325 24.32 104.109 23.456C104.909 22.576 106.061 22.136 107.565 22.136C108.013 22.136 108.509 22.208 109.053 22.352C109.613 22.48 110.101 22.696 110.517 23L109.101 25.424C108.941 25.216 108.749 25.08 108.525 25.016C108.317 24.936 108.117 24.896 107.925 24.896C107.445 24.896 107.053 25.056 106.749 25.376C106.445 25.696 106.293 26.208 106.293 26.912V30.464H109.461V33.44H106.293V41H102.933ZM117.286 41.288C116.006 41.288 114.918 41.048 114.022 40.568C113.142 40.088 112.47 39.424 112.006 38.576C111.542 37.728 111.31 36.752 111.31 35.648C111.31 34.592 111.582 33.64 112.126 32.792C112.67 31.944 113.398 31.272 114.31 30.776C115.222 30.264 116.238 30.008 117.358 30.008C118.862 30.008 120.094 30.448 121.054 31.328C122.03 32.192 122.662 33.448 122.95 35.096L115.27 37.544C115.782 38.136 116.478 38.432 117.358 38.432C117.726 38.432 118.078 38.368 118.414 38.24C118.766 38.112 119.11 37.944 119.446 37.736L120.934 40.232C120.374 40.552 119.766 40.808 119.11 41C118.47 41.192 117.862 41.288 117.286 41.288ZM114.622 35.456C114.622 35.536 114.622 35.608 114.622 35.672L119.23 34.112C119.086 33.712 118.854 33.368 118.534 33.08C118.214 32.776 117.734 32.624 117.094 32.624C116.342 32.624 115.742 32.88 115.294 33.392C114.846 33.904 114.622 34.592 114.622 35.456ZM130.552 41.288C129.272 41.288 128.184 41.048 127.288 40.568C126.408 40.088 125.736 39.424 125.272 38.576C124.808 37.728 124.576 36.752 124.576 35.648C124.576 34.592 124.848 33.64 125.392 32.792C125.936 31.944 126.664 31.272 127.576 30.776C128.488 30.264 129.504 30.008 130.624 30.008C132.128 30.008 133.36 30.448 134.32 31.328C135.296 32.192 135.928 33.448 136.216 35.096L128.536 37.544C129.048 38.136 129.744 38.432 130.624 38.432C130.992 38.432 131.344 38.368 131.68 38.24C132.032 38.112 132.376 37.944 132.712 37.736L134.2 40.232C133.64 40.552 133.032 40.808 132.376 41C131.736 41.192 131.128 41.288 130.552 41.288ZM127.888 35.456C127.888 35.536 127.888 35.608 127.888 35.672L132.496 34.112C132.352 33.712 132.12 33.368 131.8 33.08C131.48 32.776 131 32.624 130.36 32.624C129.608 32.624 129.008 32.88 128.56 33.392C128.112 33.904 127.888 34.592 127.888 35.456Z" fill="#FF4B32"/>
<g clip-path="url(#clip0_1_617)" filter="url(#filter0_d_1_617)">
<path d="M49.8497 41.8508H42.7774C42.3728 41.8508 42.045 42.1787 42.045 42.5832C42.045 42.9877 42.3728 43.3156 42.7774 43.3156H49.1173V43.7288L38.4526 45.7541H17.0748L6.41016 43.7288V43.3156H9.32227C9.32345 43.3156 9.32462 43.3158 9.32569 43.3158C9.32657 43.3158 9.32755 43.3156 9.32843 43.3156H11.9673C11.9682 43.3156 11.969 43.3158 11.9698 43.3158C11.9712 43.3158 11.9727 43.3156 11.974 43.3156H20.755C20.7555 43.3156 20.756 43.3157 20.7566 43.3157C20.7571 43.3157 20.7575 43.3156 20.7579 43.3156H23.3746C23.3754 43.3156 23.3762 43.3158 23.377 43.3158C23.3778 43.3158 23.3787 43.3156 23.3794 43.3156H32.148C32.1489 43.3156 32.1497 43.3158 32.1504 43.3158C32.1512 43.3158 32.152 43.3156 32.1527 43.3156H40.0576C40.4622 43.3156 40.79 42.9877 40.79 42.5832C40.79 42.1787 40.4622 41.8508 40.0576 41.8508H35.3334C36.2081 41.2949 37.0244 40.6439 37.7583 39.9105C38.8175 38.8508 39.6872 37.6521 40.3518 36.3562C41.278 36.7335 42.2587 36.925 43.2754 36.925C47.5649 36.925 51.0547 33.4347 51.0547 29.1447C51.0547 24.8551 47.5649 21.3654 43.2754 21.3654C42.8105 21.3654 42.35 21.4075 41.8974 21.4886V21.0696C41.8974 20.1321 41.1347 19.3694 40.1973 19.3694H36.7334C36.3288 19.3694 36.0009 19.6973 36.0009 20.1018C36.0009 20.5063 36.3288 20.8342 36.7334 20.8342H40.1973C40.327 20.8342 40.4326 20.9398 40.4326 21.0696V22.3147H15.0937V21.0696C15.0937 20.9398 15.1992 20.8342 15.329 20.8342H34.0127C34.4172 20.8342 34.7451 20.5063 34.7451 20.1018C34.7451 19.6973 34.4172 19.3694 34.0127 19.3694H15.329C14.3915 19.3694 13.6288 20.1321 13.6288 21.0696V29.9153C13.6288 31.02 13.758 32.1152 14.0098 33.179C12.8177 32.8235 11.3972 33.1028 10.1011 33.9896C9.7672 34.218 9.68165 34.6738 9.91007 35.0077C10.1386 35.3415 10.5944 35.4269 10.9282 35.1986C11.7777 34.6175 12.6691 34.3893 13.4062 34.537L10.7384 38.5284C10.5136 38.8647 10.604 39.3196 10.9402 39.5443C11.0652 39.6279 11.2068 39.6679 11.3466 39.6679C11.583 39.6679 11.8151 39.5537 11.9562 39.3425L14.6247 35.3497C14.9015 35.7605 15.0531 36.2981 15.0603 36.9247C15.0603 36.925 15.0603 36.9252 15.0603 36.9255C15.0603 36.9268 15.0604 36.9282 15.0604 36.9296C15.0702 37.8971 14.7321 38.9437 14.1086 39.8765C13.7531 40.4085 13.3328 40.8646 12.8569 41.2342C12.5269 41.4926 12.1802 41.6993 11.825 41.8508H9.51124C9.48478 41.8349 9.45841 41.819 9.43214 41.8012C8.2127 40.9868 8.13555 38.8804 9.25645 37.0059C9.46407 36.6588 9.35099 36.209 9.00382 36.0013C8.65684 35.7939 8.20694 35.9068 7.99932 36.2541C7.28477 37.4489 6.93575 38.7802 7.01661 40.0027C7.0625 40.6964 7.24405 41.3215 7.54288 41.8507H5.67774C5.27315 41.8507 4.94531 42.1786 4.94531 42.5831V44.335C4.94531 44.6869 5.19551 44.9889 5.54111 45.0546L16.3116 47.1V49.2676C16.3116 49.6721 16.6395 50 17.0441 50H38.4824C38.887 50 39.2148 49.6721 39.2148 49.2676V47.1002L49.9863 45.0546C50.3319 44.9889 50.5821 44.6868 50.5821 44.335V42.5831C50.5821 42.1787 50.2542 41.8508 49.8497 41.8508ZM41.8973 29.9151V26.4499H41.8974C42.3218 26.232 42.7912 26.1164 43.2754 26.1164C44.9452 26.1164 46.3037 27.4749 46.3037 29.1447C46.3037 30.8145 44.9452 32.173 43.2754 32.173C42.7432 32.173 42.231 32.0348 41.7761 31.7743C41.8559 31.1628 41.8973 30.5422 41.8973 29.9151ZM41.4979 33.272C42.0548 33.5125 42.6563 33.638 43.2754 33.638C45.7529 33.638 47.7685 31.6223 47.7685 29.1448C47.7685 26.6672 45.7529 24.6516 43.2754 24.6516C42.8027 24.6516 42.339 24.7255 41.8974 24.8678V23.0546C41.8974 23.0521 41.8978 23.0497 41.8978 23.0471C41.8978 23.0446 41.8974 23.0421 41.8974 23.0396V22.9821C42.347 22.8817 42.8086 22.8302 43.2755 22.8302C46.7572 22.8302 49.5899 25.6629 49.5899 29.1447C49.5899 32.627 46.7572 35.4601 43.2755 35.4601C42.4679 35.4601 41.6895 35.3096 40.9529 35.017C41.1723 34.4491 41.3539 33.8663 41.4979 33.272ZM15.0937 23.7795H40.4326V26.034C40.4326 26.0348 40.4326 26.0357 40.4326 26.0365V29.9152C40.4326 33.2994 39.1149 36.4813 36.7225 38.8747C35.397 40.1993 33.7736 41.2259 32.022 41.8508H23.5063C23.2701 41.7667 23.035 41.6762 22.8029 41.5773C23.3403 40.7324 23.5451 39.7924 23.3682 38.8965C23.368 38.8953 23.3679 38.8942 23.3677 38.893C23.3674 38.8917 23.3669 38.8903 23.3667 38.8889C23.1332 37.7234 22.3097 36.7644 21.0472 36.1884C19.8646 35.6489 18.4192 35.5092 16.9771 35.7956C16.8459 35.8216 16.7159 35.8514 16.587 35.8842C15.6094 34.0566 15.0937 32.0054 15.0937 29.9153V23.7795ZM15.3267 40.6904C16.0047 39.676 16.4139 38.5384 16.5053 37.436C16.751 37.3532 17.0037 37.2838 17.2626 37.2322C19.1262 36.8623 20.9231 37.423 21.6396 38.4898L16.9325 39.4255C16.5358 39.5044 16.2781 39.8898 16.3569 40.2866C16.4262 40.6351 16.7322 40.8763 17.0745 40.8763C17.1218 40.8763 17.1699 40.8718 17.2181 40.8621L21.9281 39.9258C21.8341 40.4076 21.5656 40.8906 21.1354 41.3344C21.1342 41.3355 21.1331 41.3368 21.1321 41.338C20.9527 41.522 20.7498 41.6934 20.5289 41.8506H14.3706C14.7217 41.5044 15.0419 41.1166 15.3267 40.6904ZM37.75 48.5353H17.7764V47.2189H37.75V48.5353Z" fill="#FF4B32"/>
<path d="M29.6696 14.6436C29.6563 14.652 29.6455 14.6587 29.6377 14.6637C29.645 14.659 29.6558 14.6522 29.6696 14.6436Z" fill="#FF4B32"/>
<path d="M29.6382 14.6636C29.6181 14.6762 29.6206 14.6746 29.6382 14.6636V14.6636Z" fill="#FF4B32"/>
<path d="M31.2554 7.99494C32.2418 7.05744 32.8098 5.75832 32.8098 4.36378C32.8098 2.62794 31.9311 1.03877 30.4592 0.1126C30.1169 -0.10283 29.6645 0.000100211 29.4493 0.342484C29.2338 0.684867 29.3368 1.13702 29.6792 1.35245C30.7223 2.0088 31.3451 3.13448 31.3451 4.36368C31.3451 5.59288 30.7223 6.71857 29.6792 7.37492C29.2314 7.65578 29.2314 8.33293 29.6792 8.61477C30.7223 9.27111 31.3451 10.3968 31.3451 11.626C31.3452 12.8553 30.7224 13.9811 29.6793 14.6374C29.6754 14.6398 29.673 14.6413 29.6697 14.6435C29.6728 14.6415 29.6758 14.6397 29.6793 14.6375C29.3369 14.853 29.2339 15.3051 29.4494 15.6475C29.5885 15.8688 29.8265 15.99 30.0699 15.99C30.2032 15.99 30.3381 15.9536 30.4592 15.8774C31.9311 14.9513 32.8098 13.362 32.8098 11.6263C32.8098 10.2316 32.2417 8.93244 31.2554 7.99494ZM30.0613 14.397C30.0786 14.3862 30.0807 14.3848 30.0613 14.397V14.397ZM29.9659 14.4572C29.9819 14.447 29.9967 14.4377 30.0101 14.4293C29.9973 14.4373 29.983 14.4464 29.9659 14.4572Z" fill="#FF4B32"/>
<path d="M35.6138 7.37508C35.2715 7.15965 34.8191 7.26248 34.6038 7.60496C34.3884 7.94724 34.4913 8.39949 34.8337 8.61492C35.8768 9.27127 36.4995 10.3971 36.4995 11.6263C36.4996 12.8553 35.8769 13.981 34.8338 14.6374C34.4914 14.8528 34.3885 15.305 34.6039 15.6474C34.7431 15.8686 34.9811 15.9898 35.2244 15.9898C35.3577 15.9898 35.4927 15.9534 35.6138 15.8772C37.0856 14.9512 37.9643 13.3619 37.9643 11.6262C37.9643 9.89041 37.0856 8.30115 35.6138 7.37508Z" fill="#FF4B32"/>
<path d="M24.8828 7.37505C24.5405 7.15962 24.0881 7.26255 23.8729 7.60494C23.6574 7.94732 23.7604 8.39947 24.1027 8.6149C25.1459 9.27125 25.7687 10.3969 25.7687 11.6261C25.7688 12.8553 25.146 13.9811 24.1028 14.6375C23.7605 14.8529 23.6575 15.305 23.873 15.6474C24.0121 15.8687 24.2501 15.9899 24.4935 15.9899C24.6268 15.9899 24.7617 15.9535 24.8828 15.8773C26.3547 14.9512 27.2334 13.362 27.2334 11.6262C27.2334 9.89039 26.3547 8.30123 24.8828 7.37505Z" fill="#FF4B32"/>
</g>
<defs>
<filter id="filter0_d_1_617" x="-1" y="0" width="58" height="58" filterUnits="userSpaceOnUse" color-interpolation-filters="sRGB">
<feFlood flood-opacity="0" result="BackgroundImageFix"/>
<feColorMatrix in="SourceAlpha" type="matrix" values="0 0 0 0 0 0 0 0 0 0 0 0 0 0 0 0 0 0 127 0" result="hardAlpha"/>
<feOffset dy="4"/>
<feGaussianBlur stdDeviation="2"/>
<feComposite in2="hardAlpha" operator="out"/>
<feColorMatrix type="matrix" values="0 0 0 0 0 0 0 0 0 0 0 0 0 0 0 0 0 0 0.25 0"/>
<feBlend mode="normal" in2="BackgroundImageFix" result="effect1_dropShadow_1_617"/>
<feBlend mode="normal" in="SourceGraphic" in2="effect1_dropShadow_1_617" result="shape"/>
</filter>
<clipPath id="clip0_1_617">
<rect width="50" height="50" fill="white" transform="translate(3)"/>
</clipPath>
</defs>
</svg>
